<svg width="38" height="30" viewBox="0 0 38 30" fill="none" xmlns="http://www.w3.org/2000/svg">
<path d="M31.8317 1.16474C32.4656 0.561244 33.3091 0.227605 34.1843 0.234228C35.0595 0.24085 35.898 0.587216 36.5227 1.20024C37.1474 1.81326 37.5095 2.64499 37.5326 3.51993C37.5557 4.39486 37.2381 5.24457 36.6467 5.88975L18.6917 28.3447C18.3829 28.6773 18.0103 28.9442 17.596 29.1294C17.1818 29.3146 16.7345 29.4144 16.2808 29.4228C15.8271 29.4312 15.3764 29.3481 14.9556 29.1783C14.5347 29.0085 14.1525 28.7556 13.8317 28.4347L1.92465 16.5277C1.59306 16.2188 1.3271 15.8462 1.14264 15.4322C0.958174 15.0182 0.858985 14.5713 0.850989 14.1181C0.842994 13.6649 0.926356 13.2148 1.0961 12.7946C1.26584 12.3743 1.5185 11.9926 1.83898 11.6721C2.15946 11.3516 2.54122 11.0989 2.96146 10.9292C3.38171 10.7594 3.83184 10.6761 4.285 10.6841C4.73817 10.6921 5.18508 10.7913 5.59907 10.9757C6.01307 11.1602 6.38567 11.4262 6.69465 11.7577L16.1177 21.1762L31.7462 1.26375C31.7743 1.2291 31.8043 1.19605 31.8362 1.16474H31.8317Z" fill="#03CCBA"/>
</svg>
