<svg width="128" height="128" viewBox="0 0 128 128" fill="none" xmlns="http://www.w3.org/2000/svg">
<g opacity="0.2">
<path d="M64 128C99.3462 128 128 99.3462 128 64C128 28.6538 99.3462 0 64 0C28.6538 0 0 28.6538 0 64C0 99.3462 28.6538 128 64 128Z" fill="#39BBD8"/>
</g>
<path d="M104.371 33.6823V80.3158C104.371 81.0277 104.088 81.7104 103.584 82.2138C103.081 82.7172 102.398 83 101.686 83H25.6842C24.9723 83 24.2896 82.7172 23.7862 82.2138C23.2828 81.7104 23 81.0277 23 80.3158V33.6823C23.0001 33.0737 23.207 32.4833 23.5867 32.0078C23.9664 31.5323 24.4964 31.1999 25.0898 31.0652C25.2837 31.022 25.4817 31.0001 25.6803 31H101.688C102.259 30.9993 102.814 31.1803 103.275 31.5168C103.736 31.8532 104.077 32.3277 104.25 32.8713C104.332 33.1336 104.373 33.4073 104.371 33.6823Z" fill="#BABABA"/>
<path d="M104.371 75.6684V80.3158C104.371 81.0277 104.088 81.7105 103.584 82.2138C103.081 82.7172 102.398 83 101.686 83H25.6842C24.9723 83 24.2896 82.7172 23.7862 82.2138C23.2828 81.7105 23 81.0277 23 80.3158V75.6684L63.6862 51.4668L104.371 75.6684Z" fill="#CECECE"/>
<path d="M104.25 32.8713L66.1173 62.8131C65.3819 63.2509 64.542 63.4819 63.6862 63.4819C62.8304 63.4819 61.9905 63.2509 61.2551 62.8131L23.1284 32.8732C23.3005 32.3302 23.6409 31.856 24.1004 31.5192C24.5598 31.1825 25.1145 31.0006 25.6841 31H101.688C102.259 30.9993 102.814 31.1803 103.275 31.5168C103.736 31.8532 104.077 32.3277 104.25 32.8713Z" fill="#E2E2E2"/>
<path d="M91.174 39.2942C92.5897 39.2942 93.7374 38.1466 93.7374 36.7309C93.7374 35.3151 92.5897 34.1675 91.174 34.1675C89.7583 34.1675 88.6106 35.3151 88.6106 36.7309C88.6106 38.1466 89.7583 39.2942 91.174 39.2942Z" fill="white"/>
<path d="M85.8325 38.5463C86.8352 38.5463 87.6481 37.7334 87.6481 36.7307C87.6481 35.7279 86.8352 34.915 85.8325 34.915C84.8297 34.915 84.0168 35.7279 84.0168 36.7307C84.0168 37.7334 84.8297 38.5463 85.8325 38.5463Z" fill="white"/>
<path d="M69.7107 78.1083C69.5019 77.9879 69.3188 77.8275 69.172 77.6364C69.0252 77.4452 68.9174 77.227 68.8549 76.9942C68.7924 76.7614 68.7764 76.5186 68.8077 76.2796C68.839 76.0406 68.9171 75.8101 69.0376 75.6013L73.2122 68.3737C73.4555 67.9522 73.8562 67.6447 74.3263 67.5186C74.7964 67.3926 75.2972 67.4585 75.7187 67.7018C76.1403 67.9452 76.4478 68.346 76.5739 68.8161C76.6999 69.2863 76.634 69.7872 76.3907 70.2087L72.2177 77.4372C71.9742 77.8585 71.5733 78.1659 71.1032 78.2918C70.633 78.4177 70.1322 78.3516 69.7107 78.1083Z" fill="#61E5AB"/>
<path d="M64.0001 76.5781C63.5134 76.5781 63.0466 76.3847 62.7025 76.0406C62.3584 75.6965 62.165 75.2297 62.165 74.743V66.397C62.165 65.9104 62.3584 65.4436 62.7025 65.0995C63.0466 64.7553 63.5134 64.562 64.0001 64.562C64.4867 64.562 64.9535 64.7553 65.2976 65.0995C65.6418 65.4436 65.8351 65.9104 65.8351 66.397V74.743C65.8351 75.2297 65.6418 75.6965 65.2976 76.0406C64.9535 76.3847 64.4867 76.5781 64.0001 76.5781Z" fill="#219EE7"/>
<path d="M64.0001 111.437C63.5134 111.437 63.0466 111.244 62.7025 110.9C62.3584 110.556 62.165 110.089 62.165 109.602V101.256C62.165 100.77 62.3584 100.303 62.7025 99.9589C63.0466 99.6147 63.5134 99.4214 64.0001 99.4214C64.4867 99.4214 64.9535 99.6147 65.2976 99.9589C65.6418 100.303 65.8351 100.77 65.8351 101.256V109.602C65.8351 110.089 65.6418 110.556 65.2976 110.9C64.9535 111.244 64.4867 111.437 64.0001 111.437Z" fill="#48C9C3"/>
<path d="M75.4218 87.9996C75.4218 87.5129 75.6151 87.0462 75.9592 86.702C76.3034 86.3579 76.7701 86.1646 77.2568 86.1646H85.6028C86.0895 86.1646 86.5562 86.3579 86.9003 86.702C87.2445 87.0462 87.4378 87.5129 87.4378 87.9996C87.4378 88.4863 87.2445 88.953 86.9003 89.2971C86.5562 89.6413 86.0895 89.8346 85.6028 89.8346H77.2568C76.7701 89.8346 76.3034 89.6413 75.9592 89.2971C75.6151 88.953 75.4218 88.4863 75.4218 87.9996Z" fill="#61E5AB"/>
<path d="M40.5623 87.9996C40.5623 87.5129 40.7556 87.0462 41.0997 86.702C41.4439 86.3579 41.9106 86.1646 42.3973 86.1646H50.7433C51.23 86.1646 51.6967 86.3579 52.0409 86.702C52.385 87.0462 52.5783 87.5129 52.5783 87.9996C52.5783 88.4863 52.385 88.953 52.0409 89.2971C51.6967 89.6413 51.23 89.8346 50.7433 89.8346H42.3973C41.9106 89.8346 41.4439 89.6413 41.0997 89.2971C40.7556 88.953 40.5623 88.4863 40.5623 87.9996Z" fill="#219EE7"/>
<path d="M58.2889 78.1083C57.8675 78.3517 57.3667 78.4177 56.8967 78.2918C56.4266 78.1659 56.0258 77.8585 55.7824 77.4372L51.6094 70.2088C51.3661 69.7873 51.3001 69.2864 51.426 68.8162C51.552 68.3461 51.8595 67.9452 52.2809 67.7018C52.7025 67.4585 53.2034 67.3926 53.6735 67.5186C54.1437 67.6446 54.5445 67.9522 54.7879 68.3737L58.9625 75.6013C59.0829 75.8102 59.161 76.0407 59.1923 76.2797C59.2236 76.5187 59.2075 76.7615 59.145 76.9943C59.0824 77.2271 58.9746 77.4453 58.8278 77.6365C58.6809 77.8276 58.4978 77.9879 58.2889 78.1083Z" fill="#219EE7"/>
<path d="M75.7187 108.298C75.2972 108.541 74.7963 108.607 74.3262 108.481C73.8562 108.355 73.4554 108.047 73.2121 107.626L69.0375 100.398C68.7942 99.9766 68.7282 99.4757 68.8541 99.0056C68.9801 98.5355 69.2876 98.1346 69.709 97.8912C69.9178 97.7704 70.1483 97.692 70.3874 97.6604C70.6264 97.6288 70.8694 97.6446 71.1024 97.7069C71.3354 97.7692 71.5538 97.8768 71.7451 98.0236C71.9365 98.1704 72.097 98.3535 72.2176 98.5623L76.3906 105.791C76.6339 106.212 76.6998 106.713 76.5738 107.183C76.4478 107.653 76.1402 108.054 75.7187 108.298Z" fill="#48C9C3"/>
<path d="M73.8915 82.289C73.6481 81.8675 73.5821 81.3667 73.7079 80.8966C73.8338 80.4264 74.1412 80.0255 74.5626 79.782L81.791 75.609C82.2126 75.3657 82.7135 75.2999 83.1836 75.4259C83.6538 75.5519 84.0546 75.8595 84.298 76.281C84.5412 76.7025 84.6071 77.2033 84.4811 77.6734C84.3551 78.1435 84.0475 78.5442 83.626 78.7875L76.3984 82.9622C76.1896 83.0826 75.9591 83.1607 75.7201 83.192C75.4812 83.2234 75.2383 83.2073 75.0055 83.1448C74.7727 83.0823 74.5545 82.9745 74.3634 82.8277C74.1722 82.6809 74.0119 82.4978 73.8915 82.289Z" fill="#61E5AB"/>
<path d="M43.7021 99.7185C43.4589 99.297 43.393 98.7962 43.519 98.3261C43.645 97.856 43.9526 97.4553 44.3741 97.212L51.6017 93.0374C52.0232 92.794 52.5241 92.7281 52.9942 92.854C53.4643 92.9799 53.8652 93.2874 54.1086 93.7089C54.2294 93.9176 54.3078 94.1482 54.3395 94.3872C54.3711 94.6263 54.3553 94.8693 54.2929 95.1023C54.2306 95.3352 54.123 95.5536 53.9762 95.745C53.8294 95.9364 53.6464 96.0969 53.4375 96.2175L46.2091 100.39C45.7876 100.634 45.2866 100.7 44.8165 100.574C44.3464 100.448 43.9455 100.14 43.7021 99.7185Z" fill="#35B4D4"/>
<path d="M54.1086 82.289C53.9882 82.4978 53.8279 82.6809 53.6367 82.8277C53.4456 82.9745 53.2274 83.0823 52.9946 83.1448C52.7618 83.2073 52.519 83.2234 52.28 83.192C52.041 83.1607 51.8105 83.0826 51.6017 82.9622L44.3741 78.7875C43.9526 78.5442 43.645 78.1435 43.519 77.6734C43.393 77.2033 43.4589 76.7025 43.7021 76.281C43.9455 75.8595 44.3464 75.5519 44.8165 75.4259C45.2866 75.2999 45.7876 75.3657 46.2091 75.609L53.4375 79.782C53.8589 80.0255 54.1663 80.4264 54.2922 80.8966C54.418 81.3667 54.352 81.8675 54.1086 82.289Z" fill="#219EE7"/>
<path d="M84.298 99.7185C84.0546 100.14 83.6538 100.448 83.1836 100.574C82.7135 100.7 82.2126 100.634 81.791 100.39L74.5626 96.2174C74.1411 95.9741 73.8335 95.5732 73.7075 95.1031C73.5815 94.633 73.6474 94.132 73.8907 93.7105C74.0111 93.5015 74.1714 93.3184 74.3627 93.1715C74.5539 93.0246 74.7722 92.9168 75.0051 92.8543C75.238 92.7917 75.4809 92.7757 75.72 92.8071C75.959 92.8385 76.1896 92.9168 76.3984 93.0373L83.626 97.2119C84.0475 97.4552 84.3551 97.856 84.4811 98.326C84.6071 98.7961 84.5412 99.297 84.298 99.7185Z" fill="#61E5AB"/>
<path d="M52.2809 108.298C51.8595 108.054 51.552 107.653 51.426 107.183C51.3001 106.713 51.3661 106.212 51.6094 105.791L55.7824 98.5622C56.0257 98.1407 56.4264 97.8331 56.8965 97.7071C57.3666 97.5811 57.8674 97.647 58.2889 97.8903C58.4979 98.0106 58.6811 98.171 58.828 98.3622C58.975 98.5534 59.0828 98.7717 59.1454 99.0046C59.2079 99.2375 59.224 99.4804 59.1926 99.7195C59.1612 99.9586 59.083 100.189 58.9625 100.398L54.7879 107.626C54.5445 108.047 54.1437 108.355 53.6735 108.481C53.2034 108.607 52.7025 108.541 52.2809 108.298Z" fill="#35B4D4"/>
</svg>
