<svg width="128" height="128" viewBox="0 0 128 128" fill="none" xmlns="http://www.w3.org/2000/svg">
<g opacity="0.2">
<path d="M64 128C99.3462 128 128 99.3462 128 64C128 28.6538 99.3462 0 64 0C28.6538 0 0 28.6538 0 64C0 99.3462 28.6538 128 64 128Z" fill="#39BBD8"/>
</g>
<path d="M96.1113 37.4759V80.5223C96.1113 81.1794 95.8502 81.8096 95.3856 82.2743C94.9209 82.739 94.2907 83 93.6336 83H23.4777C22.8206 83 22.1904 82.739 21.7257 82.2743C21.261 81.8096 21 81.1794 21 80.5223V37.4759C21.0001 36.9142 21.1911 36.3692 21.5416 35.9303C21.8921 35.4914 22.3813 35.1846 22.9291 35.0602C23.108 35.0203 23.2908 35.0001 23.4742 35H93.6353C94.1618 34.9993 94.6749 35.1664 95.1 35.477C95.5252 35.7876 95.8403 36.2255 95.9998 36.7273C96.0757 36.9695 96.1133 37.2221 96.1113 37.4759Z" fill="#BABABA"/>
<path d="M96.1113 76.2323V80.5222C96.1113 81.1794 95.8502 81.8096 95.3856 82.2742C94.9209 82.7389 94.2907 82.9999 93.6336 82.9999H23.4777C22.8206 82.9999 22.1904 82.7389 21.7257 82.2742C21.261 81.8096 21 81.1794 21 80.5222V76.2323L58.5565 53.8923L96.1113 76.2323Z" fill="#CECECE"/>
<path d="M95.9997 36.7273L60.8005 64.366C60.1217 64.77 59.3464 64.9833 58.5565 64.9833C57.7665 64.9833 56.9912 64.77 56.3124 64.366L21.1185 36.7291C21.2774 36.2278 21.5916 35.7901 22.0157 35.4793C22.4398 35.1684 22.9518 35.0006 23.4776 35H93.6353C94.1618 34.9993 94.6748 35.1664 95.1 35.477C95.5251 35.7876 95.8403 36.2255 95.9997 36.7273Z" fill="#E2E2E2"/>
<path d="M83.9299 42.656C85.2367 42.656 86.2961 41.5966 86.2961 40.2898C86.2961 38.983 85.2367 37.9236 83.9299 37.9236C82.6231 37.9236 81.5637 38.983 81.5637 40.2898C81.5637 41.5966 82.6231 42.656 83.9299 42.656Z" fill="white"/>
<path d="M78.9992 41.966C79.9248 41.966 80.6752 41.2156 80.6752 40.29C80.6752 39.3644 79.9248 38.614 78.9992 38.614C78.0736 38.614 77.3232 39.3644 77.3232 40.29C77.3232 41.2156 78.0736 41.966 78.9992 41.966Z" fill="white"/>
<path d="M86.365 76.3649C86.9989 75.7614 87.8424 75.4278 88.7177 75.4344C89.5929 75.441 90.4313 75.7874 91.056 76.4004C91.6807 77.0135 92.0428 77.8452 92.0659 78.7201C92.0891 79.5951 91.7714 80.4448 91.18 81.0899L73.225 103.545C72.9162 103.877 72.5436 104.144 72.1294 104.33C71.7151 104.515 71.2678 104.615 70.8141 104.623C70.3604 104.631 69.9097 104.548 69.4889 104.378C69.0681 104.209 68.6858 103.956 68.365 103.635L56.458 91.7279C56.1264 91.419 55.8604 91.0464 55.676 90.6324C55.4915 90.2184 55.3923 89.7715 55.3843 89.3183C55.3763 88.8651 55.4597 88.415 55.6294 87.9947C55.7992 87.5745 56.0518 87.1928 56.3723 86.8723C56.6928 86.5518 57.0745 86.2991 57.4948 86.1294C57.915 85.9596 58.3652 85.8763 58.8183 85.8843C59.2715 85.8923 59.7184 85.9915 60.1324 86.1759C60.5464 86.3604 60.919 86.6263 61.228 86.9579L70.651 96.3764L86.275 76.4639C86.303 76.4292 86.3331 76.3961 86.365 76.3649Z" fill="#219EE7"/>
<path d="M88.165 100.935L84.025 96.795H84.0205L88.264 91.4895L90.4465 93.6765L106.075 73.764C106.374 73.4229 106.738 73.1456 107.147 72.9486C107.555 72.7515 107.999 72.6388 108.452 72.6171C108.905 72.5955 109.358 72.6653 109.783 72.8225C110.208 72.9797 110.598 73.2209 110.928 73.5319C111.258 73.8429 111.522 74.2172 111.704 74.6325C111.886 75.0478 111.983 75.4955 111.988 75.9489C111.993 76.4024 111.907 76.8522 111.735 77.2716C111.562 77.691 111.307 78.0714 110.985 78.39L93.0205 100.845C92.7118 101.177 92.3395 101.443 91.9256 101.628C91.5118 101.813 91.065 101.912 90.6119 101.921C90.1587 101.929 89.7085 101.846 89.2881 101.677C88.8678 101.507 88.4858 101.255 88.165 100.935Z" fill="#03CCBA"/>
</svg>
