<svg width="124" height="34" viewBox="0 0 124 34" fill="none" xmlns="http://www.w3.org/2000/svg">
<path d="M45.57 16.8444L44.144 14.0341L44.02 14.0965L44.144 18.4057V22.6524H41.23V8.97546H44.454L47.864 14.9084L49.6621 18.2808L49.7241 18.2183L49.6001 14.0341V8.97546H52.5761V22.6524H49.104L45.57 16.8444Z" fill="#B5BBC2"/>
<path d="M64.3561 17.3448C64.3561 18.1566 64.2321 18.906 63.9841 19.593C63.7361 20.28 63.3641 20.8421 62.8681 21.3417C62.3721 21.8413 61.8141 22.216 61.1321 22.4658C60.4501 22.7156 59.7061 22.8405 58.8381 22.8405C57.9701 22.8405 57.2261 22.7156 56.5441 22.4658C55.8621 22.216 55.3041 21.7788 54.8081 21.3417C54.3121 20.8421 53.9401 20.28 53.6921 19.593C53.3821 18.906 53.2581 18.1566 53.2581 17.3448C53.2581 16.5329 53.3821 15.7835 53.6301 15.0965C53.8781 14.4095 54.2501 13.8475 54.7461 13.3478C55.2421 12.8482 55.8001 12.4735 56.4821 12.2237C57.1641 11.9739 57.9081 11.849 58.7761 11.849C59.6441 11.849 60.4501 11.9739 61.0701 12.2237C61.7521 12.4735 62.3101 12.9107 62.8061 13.3478C63.3021 13.8475 63.6741 14.4095 63.9221 15.0965C64.2941 15.7835 64.3561 17.3448 64.3561 17.3448ZM56.9781 19.8428C57.3501 20.28 57.9701 20.5298 58.7761 20.5298C59.5821 20.5298 60.2021 20.28 60.5741 19.8428C60.9461 19.3432 61.1941 18.5313 61.1941 17.3448C61.1941 16.1582 61.0081 15.3463 60.5741 14.8467C60.2021 14.4095 59.5821 14.1597 58.7761 14.1597C57.9701 14.1597 57.3501 14.4095 56.9781 14.8467C56.6061 15.3463 56.3581 16.1582 56.3581 17.3448C56.3581 18.5313 56.6061 19.3432 56.9781 19.8428Z" fill="#B5BBC2"/>
<path d="M64.0464 14.1581L64.1084 12.347L65.7824 12.0347L66.7124 9.22437L68.8824 9.47417V12.0347H72.4165L72.6025 14.0956L68.8824 14.4079V19.0293C68.8824 19.5914 69.0064 19.9661 69.2544 20.1534C69.5024 20.3408 69.9364 20.4657 70.4324 20.4657C70.6804 20.4657 70.9904 20.4657 71.2384 20.4032C71.4865 20.3408 71.8585 20.2783 72.2925 20.1534L73.0365 21.9645C72.6645 22.2768 72.1685 22.5266 71.5485 22.7139C70.9284 22.9013 70.3704 22.9638 69.7504 22.9638C68.4484 22.9638 67.3944 22.6515 66.7124 22.027C66.0304 21.4025 65.6584 20.4032 65.6584 18.9668V14.5328L64.0464 14.1581Z" fill="#B5BBC2"/>
<path d="M73.9655 7.8511C74.2755 7.53884 74.7715 7.41394 75.3295 7.41394C75.9495 7.41394 76.3835 7.53884 76.6935 7.8511C77.0035 8.16336 77.1275 8.53807 77.1275 9.03769C77.1275 9.5373 77.0035 9.91201 76.6935 10.2243C76.3835 10.5365 75.8875 10.6614 75.3295 10.6614C74.7095 10.6614 74.2755 10.5365 73.9655 10.2243C73.6555 9.91201 73.5315 9.5373 73.5315 9.03769C73.5315 8.60052 73.6555 8.16336 73.9655 7.8511Z" fill="#B5BBC2"/>
<path d="M73.7808 12.0355H76.9428V22.6523H74.8348L73.7808 21.778V12.0355Z" fill="#B5BBC2"/>
<path d="M88.2888 11.8485C87.6068 11.5987 86.9868 11.4114 86.3048 11.2865C85.6848 11.1616 85.0648 11.0991 84.3828 11.0991C83.9488 11.0991 83.5148 11.0991 83.2048 11.1616C82.8948 11.224 82.6467 11.3489 82.4607 11.4738C82.2127 11.6612 82.0887 11.9734 82.0887 12.3482C82.0887 12.7229 82.2127 12.9727 82.3987 13.16C82.6467 13.4098 83.1428 13.5972 83.7628 13.7221L85.8088 14.1593C86.4288 14.2842 87.0488 14.4715 87.6068 14.6589C88.1648 14.8462 88.6608 15.2209 89.0328 15.5956C89.3428 15.9079 89.5908 16.2202 89.7768 16.6573C89.9628 17.0945 90.0868 17.5941 90.0868 18.2186C90.0868 19.0929 89.9628 19.7799 89.6528 20.342C89.3428 20.904 88.9088 21.3412 88.4128 21.6535C87.8548 22.0282 87.1728 22.3404 86.4288 22.5278C85.6848 22.7151 84.8788 22.7776 84.0108 22.7776C83.3908 22.7776 82.8948 22.7776 82.3987 22.7151C81.9647 22.6527 81.5307 22.5902 81.0967 22.5278C80.7247 22.4029 80.2907 22.278 79.9807 22.1531C79.6087 22.0282 79.2367 21.8408 78.8647 21.591L79.9187 19.2803C80.2907 19.4677 80.7247 19.5926 81.0347 19.7175C81.3447 19.8424 81.7167 19.9048 82.0267 19.9673C82.3367 20.0297 82.6467 20.0922 82.9568 20.0922C83.2668 20.0922 83.6388 20.1546 83.9488 20.1546C84.5068 20.1546 85.0028 20.0922 85.3128 20.0297C85.6848 19.9673 85.9948 19.8424 86.1808 19.655C86.4908 19.4052 86.6768 19.0305 86.6768 18.5933C86.6768 18.3435 86.6148 18.1562 86.5528 17.9688C86.4908 17.8439 86.3668 17.719 86.2428 17.5941C85.8708 17.3443 85.3128 17.0945 84.5688 16.9696L82.2747 16.5324C81.6547 16.4075 81.1587 16.2202 80.6627 15.9704C80.2287 15.7205 79.7947 15.4083 79.4847 14.9711C79.2367 14.7213 79.1127 14.3466 78.9267 14.0343C78.8027 13.6596 78.7407 13.2849 78.7407 12.8478C78.7407 12.1608 78.8647 11.5363 79.1127 11.0367C79.3607 10.5371 79.6707 10.1623 80.1047 9.85008C80.6007 9.47537 81.2207 9.16311 81.9027 8.97576C82.6467 8.7884 83.3908 8.72595 84.2588 8.72595C85.2508 8.72595 86.1188 8.7884 86.8628 8.97576C87.6068 9.16311 88.3508 9.41292 89.0328 9.78763L88.2888 11.8485Z" fill="#B5BBC2"/>
<path d="M90.3958 17.3432C90.3958 15.5321 90.8298 14.1582 91.7598 13.2214C92.6898 12.2846 94.0538 11.785 95.9138 11.785C96.7198 11.785 97.4018 11.9099 98.0218 12.0973C98.6418 12.2846 99.1998 12.6594 99.6338 13.0965C100.068 13.5337 100.44 14.0957 100.688 14.7827C100.936 15.4697 101.06 16.2191 101.06 17.1559C101.06 17.3432 101.06 17.593 100.998 17.8429C100.936 18.0927 100.936 18.3425 100.874 18.5923H95.2318L93.5578 18.4674C93.6198 19.2792 93.8678 19.7789 94.3018 20.0911C94.7358 20.4034 95.3558 20.5283 96.2238 20.5283C96.5338 20.5283 96.8438 20.5283 97.0918 20.5283C97.3398 20.5283 97.5878 20.4658 97.8358 20.4658C98.0838 20.4658 98.3318 20.4034 98.6418 20.3409C98.8898 20.2785 99.1998 20.216 99.5718 20.1536L100.192 22.0896C99.6338 22.3394 99.0138 22.5892 98.2698 22.7141C97.5258 22.839 96.7818 22.9014 95.9758 22.9014C95.0458 22.9014 94.1778 22.7765 93.4958 22.5267C92.7518 22.2769 92.1938 21.9022 91.6978 21.4026C91.2638 20.903 90.8918 20.3409 90.6438 19.654C90.4578 18.967 90.3338 18.1551 90.3958 17.3432ZM97.5878 14.6578C97.2778 14.2831 96.7198 14.0957 95.9758 14.0957C95.2318 14.0957 94.6118 14.2831 94.2398 14.5954C93.8678 14.9076 93.6818 15.5321 93.5578 16.4065H98.0838C98.0218 15.657 97.8358 15.0325 97.5878 14.6578Z" fill="#B5BBC2"/>
<path d="M104.284 11.9724L105.09 12.7218L107.446 11.785H107.57C109.306 11.785 110.546 12.1597 111.352 12.9716C112.158 13.7835 112.53 14.9701 112.53 16.5938V22.6516H110.298L109.306 21.7773V16.4689C109.306 15.5946 109.182 15.0325 108.872 14.7203C108.562 14.408 108.004 14.2207 107.26 14.2207C106.826 14.2207 106.454 14.2831 106.144 14.3456C105.834 14.4705 105.524 14.5954 105.276 14.8452V22.6516H102.114V12.472L104.284 11.9724Z" fill="#B5BBC2"/>
<path d="M124 22.4643L121.83 22.839L121.086 22.0271L118.544 22.9639H118.358C117.428 22.9639 116.622 22.839 115.94 22.5892C115.258 22.3394 114.762 21.9022 114.328 21.4651C113.956 20.9655 113.646 20.4034 113.46 19.7164C113.274 19.0295 113.212 18.28 113.212 17.4682C113.212 15.7195 113.646 14.3456 114.514 13.3464C115.382 12.3471 116.746 11.91 118.482 11.91C118.916 11.91 119.288 11.9724 119.66 12.0349C120.032 12.0973 120.404 12.2222 120.776 12.3471V8.66248H123.938L124 22.4643ZM120.838 14.5329C120.528 14.408 120.156 14.3456 119.846 14.2831C119.536 14.2207 119.164 14.2207 118.792 14.2207C118.42 14.2207 118.048 14.2831 117.738 14.3456C117.428 14.4705 117.18 14.5954 116.994 14.8452C116.808 15.095 116.622 15.4073 116.56 15.782C116.436 16.1567 116.436 16.7188 116.436 17.3433C116.436 17.8429 116.436 18.28 116.498 18.6548C116.56 19.0295 116.684 19.3417 116.87 19.654C117.056 19.9038 117.304 20.1536 117.614 20.2785C117.924 20.4034 118.358 20.4659 118.854 20.4659C119.66 20.4659 120.28 20.341 120.9 20.0287L120.838 14.5329Z" fill="#B5BBC2"/>
<path d="M31.1866 24.463L23.4365 32.3319L16.6165 22.9641L31.1866 24.463Z" fill="#CDD1D6"/>
<path d="M28.2718 27.4608L28.4578 31.2703L16.7397 22.9642L28.2718 27.4608Z" fill="#B5BBC2"/>
<path d="M17.794 32.4567L7.19189 29.5215L11.9039 18.9672L17.794 32.4567Z" fill="#CDD1D6"/>
<path d="M13.7636 31.3326L10.4775 33.2686L11.9036 18.9672L13.7636 31.3326Z" fill="#B5BBC2"/>
<path d="M4.27784 24.6509L1.61182 13.8467L13.0819 12.785L4.27784 24.6509Z" fill="#CDD1D6"/>
<path d="M3.28578 20.529L-0.000244141 18.6555L13.0819 12.785L3.28578 20.529Z" fill="#B5BBC2"/>
<path d="M4.40088 8.97685L12.3989 1.29529L18.971 10.8504L4.40088 8.97685Z" fill="#CDD1D6"/>
<path d="M7.43921 6.0399V2.23035L18.9713 10.8487L7.43921 6.0399Z" fill="#B5BBC2"/>
<path d="M18.042 1.35486L28.5821 4.60235L23.56 15.0318L18.042 1.35486Z" fill="#CDD1D6"/>
<path d="M22.0112 2.54242L25.3593 0.731323L23.5612 15.0328L22.0112 2.54242Z" fill="#B5BBC2"/>
<path d="M31.3099 9.53845L33.6659 20.3426L22.1958 21.092L31.3099 9.53845Z" fill="#CDD1D6"/>
<path d="M32.2399 13.598L35.4639 15.5965L22.1958 21.0922L32.2399 13.598Z" fill="#B5BBC2"/>
</svg>
