<svg width="200" height="53" viewBox="0 0 200 53" fill="none" xmlns="http://www.w3.org/2000/svg">
<path d="M73.4785 26.2885L71.1822 21.7451L70.9826 21.8461L71.1822 28.8127V35.6783H66.49V13.5669H71.6814L77.1724 23.1586L80.0676 28.6108L80.1674 28.5098L79.9677 21.7451V13.5669H84.7598V35.6783H79.1691L73.4785 26.2885Z" fill="white"/>
<path d="M103.729 27.0964C103.729 28.4089 103.529 29.6205 103.13 30.7311C102.73 31.8418 102.131 32.7505 101.332 33.5582C100.534 34.3659 99.6353 34.9717 98.5371 35.3756C97.4389 35.7794 96.2409 35.9813 94.8432 35.9813C93.4455 35.9813 92.2475 35.7794 91.1493 35.3756C90.0511 34.9717 89.1526 34.2649 88.3539 33.5582C87.5552 32.7505 86.9562 31.8418 86.5569 30.7311C86.0577 29.6205 85.858 28.4089 85.858 27.0964C85.858 25.7838 86.0577 24.5723 86.457 23.4616C86.8564 22.351 87.4554 21.4423 88.2541 20.6346C89.0528 19.8269 89.9513 19.2211 91.0495 18.8172C92.1477 18.4134 93.3457 18.2114 94.7434 18.2114C96.1411 18.2114 97.4389 18.4134 98.4373 18.8172C99.5355 19.2211 100.434 19.9278 101.233 20.6346C102.031 21.4423 102.63 22.351 103.03 23.4616C103.629 24.5723 103.729 27.0964 103.729 27.0964ZM91.8481 31.135C92.4472 31.8418 93.4455 32.2456 94.7434 32.2456C96.0412 32.2456 97.0396 31.8418 97.6386 31.135C98.2376 30.3273 98.6369 29.0147 98.6369 27.0964C98.6369 25.178 98.3374 23.8655 97.6386 23.0578C97.0396 22.351 96.0412 21.9471 94.7434 21.9471C93.4455 21.9471 92.4472 22.351 91.8481 23.0578C91.2491 23.8655 90.8498 25.178 90.8498 27.0964C90.8498 29.0147 91.2491 30.3273 91.8481 31.135Z" fill="white"/>
<path d="M103.229 21.9475L103.329 19.0195L106.025 18.5146L107.522 13.9712L111.017 14.3751V18.5146H116.707L117.007 21.8465L111.017 22.3513V29.8228C111.017 30.7315 111.216 31.3372 111.616 31.6401C112.015 31.943 112.714 32.145 113.512 32.145C113.912 32.145 114.411 32.145 114.81 32.044C115.21 31.943 115.809 31.8421 116.507 31.6401L117.705 34.5681C117.106 35.073 116.308 35.4768 115.309 35.7797C114.311 36.0826 113.413 36.1836 112.414 36.1836C110.318 36.1836 108.62 35.6788 107.522 34.6691C106.424 33.6595 105.825 32.044 105.825 29.7218V22.5533L103.229 21.9475Z" fill="white"/>
<path d="M119.203 11.7497C119.702 11.2449 120.501 11.043 121.399 11.043C122.398 11.043 123.097 11.2449 123.596 11.7497C124.095 12.2546 124.295 12.8603 124.295 13.6681C124.295 14.4758 124.095 15.0816 123.596 15.5864C123.097 16.0912 122.298 16.2932 121.399 16.2932C120.401 16.2932 119.702 16.0912 119.203 15.5864C118.704 15.0816 118.504 14.4758 118.504 13.6681C118.504 12.9613 118.704 12.2546 119.203 11.7497Z" fill="white"/>
<path d="M118.903 18.5146H123.995V35.6788H120.601L118.903 34.2653V18.5146Z" fill="white"/>
<path d="M142.265 18.2114C141.167 17.8075 140.168 17.5046 139.07 17.3027C138.072 17.1007 137.074 16.9998 135.975 16.9998C135.277 16.9998 134.578 16.9998 134.079 17.1007C133.579 17.2017 133.18 17.4036 132.88 17.6056C132.481 17.9085 132.281 18.4133 132.281 19.0191C132.281 19.6249 132.481 20.0287 132.781 20.3316C133.18 20.7355 133.979 21.0384 134.977 21.2403L138.272 21.9471C139.27 22.149 140.268 22.4519 141.167 22.7548C142.065 23.0577 142.864 23.6635 143.463 24.2693C143.962 24.7741 144.362 25.2789 144.661 25.9857C144.961 26.6925 145.16 27.5002 145.16 28.5098C145.16 29.9234 144.961 31.034 144.461 31.9427C143.962 32.8514 143.263 33.5581 142.465 34.0629C141.566 34.6687 140.468 35.1736 139.27 35.4765C138.072 35.7794 136.774 35.8803 135.376 35.8803C134.378 35.8803 133.579 35.8803 132.781 35.7794C132.082 35.6784 131.383 35.5774 130.684 35.4765C130.085 35.2745 129.386 35.0726 128.887 34.8707C128.288 34.6687 127.689 34.3658 127.09 33.962L128.787 30.2263C129.386 30.5291 130.085 30.7311 130.584 30.933C131.083 31.1349 131.682 31.2359 132.182 31.3369C132.681 31.4378 133.18 31.5388 133.679 31.5388C134.178 31.5388 134.777 31.6398 135.277 31.6398C136.175 31.6398 136.974 31.5388 137.473 31.4378C138.072 31.3369 138.571 31.1349 138.871 30.832C139.37 30.4282 139.669 29.8224 139.669 29.1156C139.669 28.7118 139.569 28.4089 139.47 28.106C139.37 27.904 139.17 27.7021 138.97 27.5002C138.371 27.0963 137.473 26.6925 136.275 26.4905L132.581 25.7838C131.583 25.5818 130.784 25.2789 129.985 24.8751C129.286 24.4712 128.588 23.9664 128.088 23.2596C127.689 22.8558 127.489 22.25 127.19 21.7452C126.99 21.1394 126.89 20.5336 126.89 19.8268C126.89 18.7162 127.09 17.7065 127.489 16.8988C127.889 16.0911 128.388 15.4853 129.087 14.9805C129.885 14.3747 130.884 13.8698 131.982 13.5669C133.18 13.2641 134.378 13.1631 135.776 13.1631C137.373 13.1631 138.771 13.2641 139.969 13.5669C141.167 13.8698 142.365 14.2737 143.463 14.8795L142.265 18.2114Z" fill="white"/>
<path d="M145.659 27.0963C145.659 24.1683 146.358 21.947 147.856 20.4326C149.353 18.9181 151.55 18.1104 154.545 18.1104C155.843 18.1104 156.941 18.3123 157.939 18.6152C158.937 18.9181 159.836 19.5239 160.535 20.2306C161.234 20.9374 161.833 21.8461 162.232 22.9567C162.631 24.0673 162.831 25.2789 162.831 26.7934C162.831 27.0963 162.831 27.5001 162.731 27.904C162.631 28.3079 162.631 28.7117 162.532 29.1156H153.447L150.751 28.9137C150.851 30.2262 151.25 31.0339 151.949 31.5388C152.648 32.0436 153.646 32.2455 155.044 32.2455C155.543 32.2455 156.042 32.2455 156.442 32.2455C156.841 32.2455 157.24 32.1446 157.64 32.1446C158.039 32.1446 158.438 32.0436 158.937 31.9426C159.337 31.8417 159.836 31.7407 160.435 31.6397L161.433 34.7697C160.535 35.1735 159.536 35.5774 158.338 35.7793C157.14 35.9812 155.942 36.0822 154.645 36.0822C153.147 36.0822 151.749 35.8803 150.651 35.4764C149.453 35.0726 148.555 34.4668 147.756 33.659C147.057 32.8513 146.458 31.9426 146.059 30.832C145.759 29.7214 145.56 28.4088 145.659 27.0963ZM157.24 22.7548C156.741 22.149 155.843 21.8461 154.645 21.8461C153.447 21.8461 152.448 22.149 151.849 22.6538C151.25 23.1586 150.951 24.1683 150.751 25.5818H158.039C157.939 24.3702 157.64 23.3606 157.24 22.7548Z" fill="white"/>
<path d="M168.022 18.4132L169.32 19.6248L173.114 18.1104H173.314C176.109 18.1104 178.106 18.7161 179.404 20.0287C180.701 21.3412 181.301 23.2596 181.301 25.8847V35.6783H177.706L176.109 34.2648V25.6828C176.109 24.2692 175.909 23.3606 175.41 22.8557C174.911 22.3509 174.013 22.048 172.815 22.048C172.116 22.048 171.517 22.149 171.017 22.2499C170.518 22.4519 170.019 22.6538 169.62 23.0577V35.6783H164.528V19.221L168.022 18.4132Z" fill="white"/>
<path d="M199.77 35.3759L196.276 35.9817L195.078 34.6691L190.985 36.1836H190.685C189.187 36.1836 187.89 35.9817 186.791 35.5778C185.693 35.1739 184.895 34.4672 184.196 33.7604C183.597 32.9527 183.098 32.044 182.798 30.9334C182.499 29.8228 182.399 28.6112 182.399 27.2986C182.399 24.4716 183.098 22.2504 184.495 20.6349C185.893 19.0195 188.089 18.3127 190.885 18.3127C191.584 18.3127 192.183 18.4137 192.782 18.5146C193.381 18.6156 193.98 18.8175 194.579 19.0195V13.0625H199.67L199.77 35.3759ZM194.678 22.5533C194.179 22.3513 193.58 22.2504 193.081 22.1494C192.582 22.0484 191.983 22.0484 191.384 22.0484C190.785 22.0484 190.186 22.1494 189.687 22.2504C189.187 22.4523 188.788 22.6542 188.489 23.0581C188.189 23.4619 187.89 23.9668 187.79 24.5726C187.59 25.1784 187.59 26.087 187.59 27.0967C187.59 27.9044 187.59 28.6112 187.69 29.217C187.79 29.8228 187.989 30.3276 188.289 30.8324C188.588 31.2363 188.988 31.6401 189.487 31.8421C189.986 32.044 190.685 32.145 191.484 32.145C192.782 32.145 193.78 31.943 194.778 31.4382L194.678 22.5533Z" fill="white"/>
<path d="M50.3168 38.6068L37.8373 51.3284L26.8555 36.1836L50.3168 38.6068Z" fill="url(#paint0_linear_4_2292)"/>
<path d="M45.6245 43.4531L45.924 49.612L27.0552 36.1836L45.6245 43.4531Z" fill="url(#paint1_linear_4_2292)"/>
<path d="M28.7523 51.5302L11.6804 46.7848L19.2679 29.7217L28.7523 51.5302Z" fill="url(#paint2_linear_4_2292)"/>
<path d="M22.2629 49.7128L16.9717 52.8428L19.2679 29.7217L22.2629 49.7128Z" fill="url(#paint3_linear_4_2292)"/>
<path d="M6.98835 38.9095L2.69543 21.4425L21.165 19.7261L6.98835 38.9095Z" fill="url(#paint4_linear_4_2292)"/>
<path d="M5.39088 32.2458L0.0996094 29.2168L21.1649 19.7261L5.39088 32.2458Z" fill="url(#paint5_linear_4_2292)"/>
<path d="M7.18787 13.5672L20.0666 1.14844L30.6492 16.5962L7.18787 13.5672Z" fill="url(#paint6_linear_4_2292)"/>
<path d="M12.0798 8.82198V2.66309L30.6492 16.5963L12.0798 8.82198Z" fill="url(#paint7_linear_4_2292)"/>
<path d="M29.1517 1.24951L46.1237 6.49972L38.0371 23.361L29.1517 1.24951Z" fill="url(#paint8_linear_4_2292)"/>
<path d="M35.5413 3.16774L40.9324 0.239746L38.0371 23.3608L35.5413 3.16774Z" fill="url(#paint9_linear_4_2292)"/>
<path d="M50.5165 14.4761L54.3102 31.9431L35.8407 33.1547L50.5165 14.4761Z" fill="url(#paint10_linear_4_2292)"/>
<path d="M52.014 21.0386L57.2054 24.2695L35.8407 33.1544L52.014 21.0386Z" fill="url(#paint11_linear_4_2292)"/>
<defs>
<linearGradient id="paint0_linear_4_2292" x1="38.5861" y1="36.1836" x2="38.5861" y2="51.3284" gradientUnits="userSpaceOnUse">
<stop stop-color="white" stop-opacity="0.8"/>
<stop offset="1" stop-color="white" stop-opacity="0.4"/>
</linearGradient>
<linearGradient id="paint1_linear_4_2292" x1="44.515" y1="43.3221" x2="4.38233" y2="40.7809" gradientUnits="userSpaceOnUse">
<stop stop-color="white"/>
<stop offset="1" stop-color="white"/>
</linearGradient>
<linearGradient id="paint2_linear_4_2292" x1="20.2163" y1="29.7217" x2="20.2163" y2="51.5302" gradientUnits="userSpaceOnUse">
<stop stop-color="white" stop-opacity="0.8"/>
<stop offset="1" stop-color="white" stop-opacity="0.4"/>
</linearGradient>
<linearGradient id="paint3_linear_4_2292" x1="21.8678" y1="42.0127" x2="10.5698" y2="41.8962" gradientUnits="userSpaceOnUse">
<stop stop-color="white"/>
<stop offset="1" stop-color="white"/>
</linearGradient>
<linearGradient id="paint4_linear_4_2292" x1="11.9302" y1="19.7261" x2="11.9302" y2="38.9095" gradientUnits="userSpaceOnUse">
<stop stop-color="white" stop-opacity="0.8"/>
<stop offset="1" stop-color="white" stop-opacity="0.4"/>
</linearGradient>
<linearGradient id="paint5_linear_4_2292" x1="19.5918" y1="26.3815" x2="-25.1349" y2="22.9903" gradientUnits="userSpaceOnUse">
<stop stop-color="white"/>
<stop offset="1" stop-color="white"/>
</linearGradient>
<linearGradient id="paint6_linear_4_2292" x1="18.9185" y1="1.14844" x2="18.9185" y2="16.5962" gradientUnits="userSpaceOnUse">
<stop stop-color="white" stop-opacity="0.8"/>
<stop offset="1" stop-color="white" stop-opacity="0.4"/>
</linearGradient>
<linearGradient id="paint7_linear_4_2292" x1="29.2625" y1="10.0699" x2="-10.249" y2="7.69699" gradientUnits="userSpaceOnUse">
<stop stop-color="white"/>
<stop offset="1" stop-color="white"/>
</linearGradient>
<linearGradient id="paint8_linear_4_2292" x1="37.6377" y1="1.24951" x2="37.6377" y2="23.361" gradientUnits="userSpaceOnUse">
<stop stop-color="white" stop-opacity="0.8"/>
<stop offset="1" stop-color="white" stop-opacity="0.4"/>
</linearGradient>
<linearGradient id="paint9_linear_4_2292" x1="40.5298" y1="12.5308" x2="29.0186" y2="12.4098" gradientUnits="userSpaceOnUse">
<stop stop-color="white"/>
<stop offset="1" stop-color="white"/>
</linearGradient>
<linearGradient id="paint10_linear_4_2292" x1="45.0755" y1="14.4761" x2="45.0755" y2="33.1547" gradientUnits="userSpaceOnUse">
<stop stop-color="white" stop-opacity="0.8"/>
<stop offset="1" stop-color="white" stop-opacity="0.4"/>
</linearGradient>
<linearGradient id="paint11_linear_4_2292" x1="55.6101" y1="27.4793" x2="10.2729" y2="23.8767" gradientUnits="userSpaceOnUse">
<stop stop-color="white"/>
<stop offset="1" stop-color="white"/>
</linearGradient>
</defs>
</svg>
