<svg width="32" height="32" viewBox="0 0 32 32" fill="none" xmlns="http://www.w3.org/2000/svg">
<path fill-rule="evenodd" clip-rule="evenodd" d="M4 0C1.79086 0 0 1.79086 0 4V28C0 30.2091 1.79086 32 4 32H28C30.2091 32 32 30.2091 32 28V4C32 1.79086 30.2091 0 28 0H4ZM17.9302 11.1631C17.9302 9.9842 16.9714 9.02543 15.7925 9.02543C14.6136 9.02543 13.6548 9.9842 13.6548 11.1631C13.6548 12.3385 14.6136 13.2973 15.7925 13.2973C16.9714 13.2973 17.9302 12.3385 17.9302 11.1631ZM20.9556 11.1631C20.9556 14.0075 18.6404 16.3227 15.7925 16.3227C12.9446 16.3227 10.6329 14.0075 10.6329 11.1631C10.6329 8.31524 12.9446 6 15.7925 6C18.6404 6 20.9556 8.31524 20.9556 11.1631ZM20.8775 19.2913C19.9436 19.8772 18.9316 20.2927 17.8805 20.5342L20.7674 23.4176C21.3569 24.007 21.3569 24.9658 20.7674 25.5552C20.1744 26.1483 19.2192 26.1483 18.6297 25.5552L15.7925 22.7216L12.9588 25.5552C12.6605 25.85 12.2735 25.9991 11.8864 25.9991C11.4994 25.9991 11.1159 25.85 10.8176 25.5552C10.2281 24.9658 10.2281 24.007 10.8176 23.4176L13.7045 20.5342C12.6534 20.2927 11.6414 19.8772 10.7075 19.2913C10.0009 18.8474 9.7878 17.9135 10.2317 17.2069C10.6755 16.4967 11.6094 16.2836 12.3161 16.7311C14.4325 18.0591 17.1525 18.0591 19.2654 16.7311C19.9756 16.2836 20.9059 16.4967 21.3533 17.2069C21.7972 17.9135 21.5841 18.8474 20.8775 19.2913Z" fill="#CDD1D6"/>
</svg>
