<svg width="32" height="32" viewBox="0 0 32 32" fill="none" xmlns="http://www.w3.org/2000/svg">
<path fill-rule="evenodd" clip-rule="evenodd" d="M4 0C1.79086 0 0 1.79086 0 4V28C0 30.2091 1.79086 32 4 32H28C30.2091 32 32 30.2091 32 28V4C32 1.79086 30.2091 0 28 0H4ZM12.7653 22.6444L13.0631 18.4354L20.7335 11.5138C21.0672 11.2168 20.6615 11.0525 20.2152 11.3495L10.7327 17.3124L6.6504 16.0363C5.76238 15.7596 5.74588 15.1491 6.83565 14.724L22.8035 8.5802C23.5431 8.30358 24.1896 8.74452 23.9488 9.87212L23.9481 9.87288L21.2315 22.6655C21.0267 23.5684 20.492 23.7923 19.733 23.3672L15.5944 20.3213L13.5971 22.2396C13.3758 22.4604 13.1913 22.6444 12.7653 22.6444Z" fill="#CDD1D6"/>
</svg>
