<svg width="32" height="32" viewBox="0 0 32 32" fill="none" xmlns="http://www.w3.org/2000/svg">
<path fill-rule="evenodd" clip-rule="evenodd" d="M4 0C1.79086 0 0 1.79086 0 4V28C0 30.2091 1.79086 32 4 32H28C30.2091 32 32 30.2091 32 28V4C32 1.79086 30.2091 0 28 0H4ZM21.4697 10.7442H24.7152C26.1942 10.7442 25.1154 12.4095 24.5194 13.1956C24.0833 13.7708 23.055 15.1133 22.4264 15.9334C22.2814 16.1227 22.2094 16.3573 22.2236 16.5946C22.2378 16.8319 22.3371 17.0564 22.5037 17.2274C22.5037 17.2274 24.4486 19.2598 24.9876 19.786C25.7534 20.5337 25.7534 21.5 24.3488 21.5H21.4363C21.163 21.5 20.9 21.3967 20.7008 21.2112L18.4829 19.1454C18.3807 19.0501 18.2525 18.9866 18.1142 18.9626C17.9759 18.9387 17.8336 18.9554 17.7048 19.0106C17.576 19.0658 17.4663 19.1572 17.3892 19.2735C17.3121 19.3898 17.2711 19.5259 17.2711 19.6651V20.7743C17.2711 20.9668 17.1939 21.1513 17.0567 21.2874C16.9194 21.4235 16.7332 21.5 16.539 21.5H14.6861C10.2837 21.5 6.42671 13.8486 5.53133 11.4138C5.5031 11.3385 5.49375 11.2574 5.50408 11.1777C5.51442 11.0979 5.54413 11.0218 5.59067 10.956C5.6372 10.8901 5.69917 10.8364 5.77125 10.7995C5.84332 10.7627 5.92335 10.7437 6.00446 10.7442H8.95319C9.08398 10.744 9.21208 10.7811 9.32229 10.8509C9.4325 10.9207 9.5202 11.0204 9.57498 11.1381C10.2129 12.7119 11.0402 14.2037 12.039 15.5808C12.1372 15.6896 12.2666 15.766 12.4099 15.7995C12.5532 15.8331 12.7035 15.8223 12.8404 15.7685C12.9773 15.7148 13.0942 15.6207 13.1754 15.4989C13.2567 15.3771 13.2983 15.2336 13.2946 15.0877C13.2752 14.0974 13.2539 12.9167 13.2539 12.5063C13.2539 10.8512 12.0148 11.0498 12.0148 11.0498C12.2105 10.7824 12.4719 10.5691 12.7741 10.43C13.0764 10.291 13.4095 10.2308 13.7418 10.2553H16.182C16.4708 10.2553 16.7478 10.3691 16.9521 10.5716C17.1563 10.774 17.2711 11.0486 17.2711 11.335V14.7616C17.2711 15.7554 17.9954 16.4277 19.114 14.2864C19.5297 13.4904 20.8242 11.1271 20.8242 11.1271C20.8868 11.0114 20.9799 10.9147 21.0936 10.8473C21.2073 10.7798 21.3373 10.7442 21.4697 10.7442Z" fill="#CDD1D6"/>
</svg>
