<svg width="32" height="32" viewBox="0 0 32 32" fill="none" xmlns="http://www.w3.org/2000/svg">
<path fill-rule="evenodd" clip-rule="evenodd" d="M0 4C0 1.79086 1.79086 0 4 0H28C30.2091 0 32 1.79086 32 4V28C32 30.2091 30.2091 32 28 32H4C1.79086 32 0 30.2091 0 28V4ZM23.9471 10.3534C23.5836 10.0211 23.1232 9.80307 22.6196 9.74704C21.5252 9.62367 20.4208 9.56157 19.3128 9.53043C18.2119 9.49951 17.1063 9.49951 16.0031 9.50015C14.9001 9.49951 13.7945 9.49951 12.6934 9.53043C11.5853 9.56157 10.4806 9.62367 9.38552 9.74704C8.88246 9.8031 8.42225 10.0212 8.05905 10.3537C7.69815 10.6841 7.433 11.1278 7.317 11.6378C7.16041 12.3215 7.08119 13.0348 7.04118 13.7525C7.001 14.4733 7 15.185 7 15.8758C7 16.5658 7.00001 17.2765 7.03924 17.9977C7.07828 18.7151 7.15654 19.4284 7.31321 20.1122C7.4299 20.6225 7.69518 21.0663 8.05605 21.3967C8.41904 21.729 8.87879 21.9469 9.38171 22.003C10.4769 22.1263 11.5816 22.1884 12.6898 22.2196C13.7908 22.2505 14.8964 22.2505 15.9996 22.2498C17.1032 22.2505 18.2088 22.2505 19.3097 22.2196C20.4177 22.1884 21.522 22.1263 22.6171 22.003C23.1199 21.9469 23.5796 21.729 23.9427 21.3968C24.3038 21.0665 24.5694 20.6226 24.6869 20.1122C24.8429 19.4284 24.9211 18.7151 24.9603 17.9977C24.999 17.2903 24.9993 16.5726 24.9993 15.8758H25V15.8409H24.9993C24.9993 14.4565 24.9993 12.9903 24.6907 11.6378C24.574 11.1275 24.3084 10.6838 23.9471 10.3534ZM16.3385 13.981C17.3634 14.5156 18.3894 15.0508 19.4225 15.5901L19.75 15.7611L19.4217 15.9313L16.6014 17.3934C15.6626 17.8799 14.7239 18.3663 13.7811 18.8545L13.5 19V18.6835V12.8173V12.5L13.7818 12.6471C14.6354 13.0926 15.4866 13.5366 16.3385 13.981Z" fill="#CDD1D6"/>
</svg>
