<svg width="128" height="128" fill="none" xmlns="http://www.w3.org/2000/svg"><path d="M64 128c35.346 0 64-28.654 64-64 0-35.346-28.654-64-64-64C28.654 0 0 28.654 0 64c0 35.346 28.654 64 64 64z" fill="#39BBD8" opacity=".2"/><path d="M96.111 37.476v43.046A2.478 2.478 0 0193.634 83H23.478A2.478 2.478 0 0121 80.522V37.476A2.478 2.478 0 0123.474 35h70.161A2.477 2.477 0 0196 36.727c.076.242.113.495.111.749z" fill="#BABABA"/><path d="M96.111 76.232v4.29A2.478 2.478 0 0193.634 83H23.478A2.478 2.478 0 0121 80.522v-4.29l37.556-22.34 37.555 22.34z" fill="#CECECE"/><path d="M96 36.727L60.8 64.366a4.388 4.388 0 01-4.488 0L21.118 36.729A2.478 2.478 0 0123.478 35h70.157A2.478 2.478 0 0196 36.727z" fill="#E2E2E2"/><path d="M83.93 42.656a2.366 2.366 0 100-4.732 2.366 2.366 0 000 4.732zm-4.93-.69a1.676 1.676 0 100-3.352 1.676 1.676 0 000 3.352z" fill="#fff"/><path d="M86.365 76.365a3.375 3.375 0 014.815 4.725l-17.955 22.455a3.372 3.372 0 01-4.86.09L56.458 91.728a3.373 3.373 0 01-.086-4.856 3.374 3.374 0 014.856.086l9.423 9.418 15.624-19.912a1.14 1.14 0 01.09-.1z" fill="#219EE7"/><path d="M88.165 100.935l-4.14-4.14h-.005l4.244-5.305 2.183 2.187 15.628-19.913a3.37 3.37 0 012.377-1.147 3.375 3.375 0 012.533 5.773L93.02 100.845a3.375 3.375 0 01-4.855.09z" fill="#03CCBA"/></svg>