<svg width="128" height="128" fill="none" xmlns="http://www.w3.org/2000/svg"><path d="M64 128c35.346 0 64-28.654 64-64 0-35.346-28.654-64-64-64C28.654 0 0 28.654 0 64c0 35.346 28.654 64 64 64z" fill="#39BBD8" opacity=".2"/><path d="M104.371 33.682v46.634A2.682 2.682 0 01101.686 83H25.684A2.684 2.684 0 0123 80.316V33.682A2.684 2.684 0 0125.68 31h76.008a2.684 2.684 0 012.562 1.871c.082.263.123.536.121.811z" fill="#BABABA"/><path d="M104.371 75.668v4.648A2.682 2.682 0 01101.686 83H25.684A2.684 2.684 0 0123 80.316v-4.648l40.686-24.201 40.685 24.201z" fill="#CECECE"/><path d="M104.25 32.871L66.117 62.813a4.752 4.752 0 01-4.862 0l-38.127-29.94A2.684 2.684 0 0125.684 31h76.004a2.684 2.684 0 012.562 1.871z" fill="#E2E2E2"/><path d="M91.174 39.294a2.563 2.563 0 100-5.126 2.563 2.563 0 000 5.126zm-5.342-.748a1.816 1.816 0 100-3.631 1.816 1.816 0 000 3.631z" fill="#fff"/><path d="M69.71 78.108a1.836 1.836 0 01-.672-2.507l4.174-7.227a1.835 1.835 0 113.179 1.835l-4.173 7.228a1.836 1.836 0 01-2.507.671z" fill="#61E5AB"/><path d="M64 76.578a1.835 1.835 0 01-1.835-1.835v-8.346a1.835 1.835 0 013.67 0v8.346A1.835 1.835 0 0164 76.578z" fill="#219EE7"/><path d="M64 111.437a1.835 1.835 0 01-1.835-1.835v-8.346a1.835 1.835 0 013.67 0v8.346A1.835 1.835 0 0164 111.437z" fill="#48C9C3"/><path d="M75.422 88a1.835 1.835 0 011.835-1.835h8.346a1.835 1.835 0 110 3.67h-8.346A1.835 1.835 0 0175.422 88z" fill="#61E5AB"/><path d="M40.562 88a1.835 1.835 0 011.835-1.835h8.346a1.835 1.835 0 110 3.67h-8.346A1.835 1.835 0 0140.562 88zm17.727-9.892a1.834 1.834 0 01-2.507-.67l-4.173-7.23a1.836 1.836 0 013.179-1.834l4.175 7.227a1.836 1.836 0 01-.674 2.507z" fill="#219EE7"/><path d="M75.719 108.298a1.836 1.836 0 01-2.507-.672l-4.175-7.228a1.835 1.835 0 113.18-1.836l4.174 7.229a1.834 1.834 0 01-.672 2.507z" fill="#48C9C3"/><path d="M73.891 82.289a1.835 1.835 0 01.672-2.507l7.228-4.173a1.835 1.835 0 011.835 3.178l-7.228 4.175a1.835 1.835 0 01-2.507-.673z" fill="#61E5AB"/><path d="M43.702 99.719a1.835 1.835 0 01.672-2.507l7.228-4.175a1.835 1.835 0 111.836 3.18l-7.229 4.173a1.832 1.832 0 01-2.507-.671z" fill="#35B4D4"/><path d="M54.109 82.289a1.834 1.834 0 01-2.507.673l-7.228-4.175a1.835 1.835 0 111.835-3.178l7.228 4.173a1.836 1.836 0 01.672 2.507z" fill="#219EE7"/><path d="M84.298 99.719a1.836 1.836 0 01-2.507.671l-7.228-4.173a1.835 1.835 0 011.835-3.18l7.228 4.175a1.835 1.835 0 01.672 2.507z" fill="#61E5AB"/><path d="M52.28 108.298a1.839 1.839 0 01-.67-2.507l4.172-7.229a1.835 1.835 0 113.18 1.836l-4.174 7.228a1.837 1.837 0 01-2.507.672z" fill="#35B4D4"/></svg>