<svg width="124" height="34" fill="none" xmlns="http://www.w3.org/2000/svg"><path d="M45.57 16.844l-1.426-2.81-.124.063.124 4.309v4.246H41.23V8.975h3.224l3.41 5.933 1.798 3.373.062-.063-.124-4.184V8.975h2.976v13.677h-3.472l-3.534-5.808zm18.786.501c0 .812-.124 1.561-.372 2.248a4.687 4.687 0 01-1.116 1.749c-.496.5-1.054.874-1.736 1.124-.682.25-1.426.374-2.294.374-.868 0-1.612-.124-2.294-.374-.682-.25-1.24-.687-1.736-1.124a4.687 4.687 0 01-1.116-1.749c-.31-.687-.434-1.436-.434-2.248 0-.812.124-1.561.372-2.248a4.688 4.688 0 011.116-1.75 4.646 4.646 0 011.736-1.123c.682-.25 1.426-.375 2.294-.375.868 0 1.674.125 2.294.375.682.25 1.24.687 1.736 1.124.496.5.868 1.061 1.116 1.748.372.688.434 2.249.434 2.249zm-7.378 2.498c.372.437.992.687 1.798.687s1.426-.25 1.798-.687c.372-.5.62-1.312.62-2.498 0-1.187-.186-1.999-.62-2.498-.372-.438-.992-.687-1.798-.687s-1.426.25-1.798.687c-.372.5-.62 1.311-.62 2.498 0 1.186.248 1.998.62 2.498zm7.068-5.685l.062-1.811 1.674-.312.93-2.81 2.17.25v2.56h3.534l.187 2.06-3.72.313v4.621c0 .562.123.937.371 1.124.248.188.682.313 1.178.313.248 0 .558 0 .806-.063.249-.062.62-.125 1.055-.25l.743 1.812c-.371.312-.868.562-1.487.749-.62.187-1.179.25-1.799.25-1.302 0-2.356-.313-3.038-.937-.682-.625-1.054-1.624-1.054-3.06v-4.434l-1.612-.375zm9.92-6.307c.31-.312.806-.437 1.364-.437.62 0 1.053.125 1.364.437.31.312.433.687.433 1.187s-.123.874-.433 1.186c-.31.313-.806.437-1.365.437-.62 0-1.053-.124-1.363-.437-.31-.312-.434-.687-.434-1.186 0-.437.124-.875.434-1.187zm-.186 4.185h3.163v10.616h-2.108l-1.054-.874v-9.742zm14.509-.188a11.815 11.815 0 00-1.984-.562 9.559 9.559 0 00-1.922-.187c-.434 0-.868 0-1.178.063a2.06 2.06 0 00-.744.312c-.248.187-.372.5-.372.874 0 .375.124.625.31.812.248.25.744.437 1.364.562l2.046.437c.62.125 1.24.313 1.798.5s1.054.562 1.426.937c.31.312.558.624.744 1.061.186.438.31.937.31 1.562 0 .874-.124 1.56-.434 2.123-.31.562-.744 1-1.24 1.312a6.399 6.399 0 01-1.984.874c-.744.187-1.55.25-2.418.25-.62 0-1.116 0-1.612-.063l-1.302-.187c-.372-.125-.806-.25-1.116-.375a4.681 4.681 0 01-1.116-.562l1.054-2.31c.372.187.806.312 1.116.437.31.124.682.187.992.25.31.062.62.124.93.124.31 0 .682.063.992.063.558 0 1.054-.063 1.364-.125.372-.063.682-.188.868-.375.31-.25.496-.625.496-1.062 0-.25-.062-.437-.124-.624-.062-.125-.186-.25-.31-.375-.372-.25-.93-.5-1.674-.624l-2.294-.438a6.142 6.142 0 01-1.612-.562c-.434-.25-.868-.562-1.178-.999-.248-.25-.372-.624-.558-.937a3.66 3.66 0 01-.186-1.186c0-.687.124-1.312.372-1.811.248-.5.558-.875.992-1.187a5.375 5.375 0 011.798-.874c.744-.188 1.488-.25 2.356-.25.992 0 1.86.062 2.604.25.744.187 1.488.437 2.17.812l-.744 2.06zm2.107 5.495c0-1.81.434-3.185 1.364-4.122.93-.936 2.294-1.436 4.154-1.436.806 0 1.488.125 2.108.312.62.188 1.178.562 1.612 1 .434.437.806.999 1.054 1.686.248.687.372 1.436.372 2.373 0 .187 0 .437-.062.687-.062.25-.062.5-.124.75h-5.642l-1.674-.126c.062.812.31 1.312.744 1.624.434.312 1.054.437 1.922.437h.868c.248 0 .496-.062.744-.062s.496-.063.806-.125c.248-.063.558-.125.93-.187l.62 1.936c-.558.25-1.178.5-1.922.624-.744.125-1.488.187-2.294.187-.93 0-1.798-.125-2.48-.374a4.427 4.427 0 01-1.798-1.124c-.434-.5-.806-1.062-1.054-1.749-.186-.687-.31-1.499-.248-2.31zm7.192-2.685c-.31-.375-.868-.562-1.612-.562-.744 0-1.364.187-1.736.5-.372.312-.558.936-.682 1.81h4.526c-.062-.749-.248-1.373-.496-1.748zm6.696-2.686l.806.75 2.356-.937h.124c1.736 0 2.976.375 3.782 1.187s1.178 1.998 1.178 3.622v6.058h-2.232l-.992-.875V16.47c0-.874-.124-1.437-.434-1.749-.31-.312-.868-.5-1.612-.5-.434 0-.806.063-1.116.126-.31.124-.62.25-.868.5v7.806h-3.162v-10.18l2.17-.5zM124 22.464l-2.17.375-.744-.812-2.542.937h-.186c-.93 0-1.736-.125-2.418-.375-.682-.25-1.178-.687-1.612-1.124a5.125 5.125 0 01-.868-1.749c-.186-.687-.248-1.436-.248-2.248 0-1.748.434-3.122 1.302-4.122.868-.999 2.232-1.436 3.968-1.436.434 0 .806.062 1.178.125.372.062.744.187 1.116.312V8.662h3.162L124 22.464zm-3.162-7.931c-.31-.125-.682-.187-.992-.25-.31-.062-.682-.062-1.054-.062s-.744.062-1.054.125c-.31.124-.558.25-.744.5-.186.249-.372.561-.434.936-.124.375-.124.937-.124 1.561 0 .5 0 .937.062 1.312.062.374.186.687.372.999.186.25.434.5.744.625.31.124.744.187 1.24.187.806 0 1.426-.125 2.046-.437l-.062-5.496z" fill="#B5BBC2"/><path d="M31.187 24.463l-7.75 7.869-6.82-9.368 14.57 1.499z" fill="#CDD1D6"/><path d="M28.272 27.46l.186 3.81-11.718-8.306 11.532 4.497z" fill="#B5BBC2"/><path d="M17.794 32.457L7.192 29.52l4.712-10.554 5.89 13.49z" fill="#CDD1D6"/><path d="M13.764 31.333l-3.287 1.936 1.427-14.302 1.86 12.366z" fill="#B5BBC2"/><path d="M4.278 24.65L1.612 13.848l11.47-1.062-8.804 11.866z" fill="#CDD1D6"/><path d="M3.286 20.529L0 18.656l13.082-5.871-9.796 7.744z" fill="#B5BBC2"/><path d="M4.4 8.977l8-7.682 6.572 9.555-14.57-1.873z" fill="#CDD1D6"/><path d="M7.44 6.04V2.23l11.53 8.62L7.44 6.039z" fill="#B5BBC2"/><path d="M18.042 1.355l10.54 3.247-5.022 10.43-5.518-13.677z" fill="#CDD1D6"/><path d="M22.011 2.542L25.36.732l-1.798 14.3-1.55-12.49z" fill="#B5BBC2"/><path d="M31.31 9.538l2.356 10.805-11.47.749L31.31 9.538z" fill="#CDD1D6"/><path d="M32.24 13.598l3.224 1.998-13.268 5.496 10.044-7.494z" fill="#B5BBC2"/></svg>