<svg width="200" height="53" fill="none" xmlns="http://www.w3.org/2000/svg"><path d="M73.478 26.288l-2.296-4.543-.2.101.2 6.967v6.865H66.49V13.567h5.191l5.491 9.592 2.896 5.452.1-.101-.2-6.765v-8.178h4.792v22.111h-5.59l-5.692-9.39zm30.251.808c0 1.313-.2 2.524-.599 3.635a7.587 7.587 0 01-1.798 2.827 7.471 7.471 0 01-2.795 1.818c-1.098.403-2.296.605-3.694.605-1.398 0-2.596-.202-3.694-.605-1.098-.404-1.996-1.111-2.795-1.818a7.58 7.58 0 01-1.797-2.827c-.5-1.11-.699-2.322-.699-3.635 0-1.312.2-2.524.599-3.634.4-1.111.998-2.02 1.797-2.827a7.479 7.479 0 012.795-1.818c1.099-.404 2.297-.606 3.694-.606 1.398 0 2.696.202 3.694.606 1.099.404 1.997 1.11 2.796 1.818a7.598 7.598 0 011.797 2.827c.599 1.11.699 3.634.699 3.634zm-11.88 4.039c.598.707 1.596 1.11 2.894 1.11s2.297-.403 2.896-1.11c.599-.808.998-2.12.998-4.039 0-1.918-.3-3.23-.998-4.038-.6-.707-1.598-1.11-2.896-1.11-1.297 0-2.296.403-2.895 1.11-.599.808-.998 2.12-.998 4.038 0 1.919.4 3.231.998 4.039zm11.38-9.187l.1-2.928 2.696-.505 1.497-4.544 3.495.404v4.14h5.69l.3 3.331-5.99.505v7.472c0 .909.199 1.514.599 1.817.399.303 1.098.505 1.896.505.4 0 .899 0 1.298-.101.4-.101.999-.202 1.697-.404l1.198 2.928c-.599.505-1.397.909-2.396 1.212-.998.303-1.896.404-2.895.404-2.096 0-3.794-.505-4.892-1.515-1.098-1.01-1.697-2.625-1.697-4.947v-7.169l-2.596-.605zm15.974-10.198c.499-.505 1.298-.707 2.196-.707.999 0 1.698.202 2.197.707.499.505.699 1.11.699 1.918 0 .808-.2 1.414-.699 1.918-.499.505-1.298.707-2.197.707-.998 0-1.697-.202-2.196-.707-.499-.504-.699-1.11-.699-1.918 0-.707.2-1.413.699-1.918zm-.3 6.765h5.092v17.164h-3.394l-1.698-1.414v-15.75zm23.362-.304c-1.098-.403-2.097-.706-3.195-.908a15.32 15.32 0 00-3.095-.303c-.698 0-1.397 0-1.896.1-.5.102-.899.304-1.199.506-.399.302-.599.807-.599 1.413s.2 1.01.5 1.313c.399.403 1.198.706 2.196.908l3.295.707c.998.202 1.996.505 2.895.808.898.303 1.697.909 2.296 1.514.499.505.899 1.01 1.198 1.717.3.706.499 1.514.499 2.524 0 1.413-.199 2.524-.699 3.433a5.805 5.805 0 01-1.996 2.12 10.288 10.288 0 01-3.195 1.413c-1.198.303-2.496.404-3.894.404-.998 0-1.797 0-2.595-.1l-2.097-.303c-.599-.202-1.298-.404-1.797-.606a7.53 7.53 0 01-1.797-.909l1.697-3.736c.599.303 1.298.505 1.797.707.499.202 1.098.303 1.598.404.499.1.998.202 1.497.202.499 0 1.098.1 1.598.1.898 0 1.697-.1 2.196-.201.599-.101 1.098-.303 1.398-.606.499-.404.798-1.01.798-1.716 0-.404-.1-.707-.199-1.01-.1-.202-.3-.404-.5-.606-.599-.404-1.497-.808-2.695-1.01l-3.694-.706a9.88 9.88 0 01-2.596-.909c-.699-.404-1.397-.909-1.897-1.615-.399-.404-.599-1.01-.898-1.515a5.93 5.93 0 01-.3-1.918c0-1.11.2-2.12.599-2.928.4-.808.899-1.414 1.598-1.919a8.635 8.635 0 012.895-1.413c1.198-.303 2.396-.404 3.794-.404 1.597 0 2.995.101 4.193.404 1.198.303 2.396.707 3.494 1.313l-1.198 3.331zm3.394 8.885c0-2.928.699-5.149 2.197-6.663 1.497-1.515 3.694-2.323 6.689-2.323 1.298 0 2.396.202 3.394.505.998.303 1.897.909 2.596 1.616a7.418 7.418 0 011.697 2.726c.399 1.11.599 2.322.599 3.836 0 .303 0 .707-.1 1.111s-.1.808-.199 1.212h-9.085l-2.696-.202c.1 1.312.499 2.12 1.198 2.625.699.505 1.697.706 3.095.706h1.398c.399 0 .798-.1 1.198-.1.399 0 .798-.101 1.297-.202.4-.101.899-.202 1.498-.303l.998 3.13c-.898.403-1.897.807-3.095 1.01a21.898 21.898 0 01-3.693.302c-1.498 0-2.896-.202-3.994-.606a7.125 7.125 0 01-2.895-1.817c-.699-.808-1.298-1.716-1.697-2.827-.3-1.11-.499-2.423-.4-3.736zm11.581-4.341c-.499-.606-1.397-.909-2.595-.909-1.198 0-2.197.303-2.796.808-.599.505-.898 1.514-1.098 2.928h7.288c-.1-1.212-.399-2.221-.799-2.827zm10.782-4.342l1.298 1.212 3.794-1.515h.2c2.795 0 4.792.606 6.09 1.919 1.297 1.312 1.897 3.23 1.897 5.856v9.793h-3.595l-1.597-1.413v-8.582c0-1.414-.2-2.322-.699-2.827-.499-.505-1.397-.808-2.595-.808a8.88 8.88 0 00-1.798.202c-.499.202-.998.404-1.397.808v12.62h-5.092V19.221l3.494-.808zm31.748 16.963l-3.494.606-1.198-1.313-4.093 1.515h-.3c-1.498 0-2.795-.202-3.894-.606-1.098-.404-1.896-1.11-2.595-1.818-.599-.807-1.098-1.716-1.398-2.827-.299-1.11-.399-2.322-.399-3.634 0-2.827.699-5.049 2.096-6.664 1.398-1.616 3.594-2.322 6.39-2.322.699 0 1.298.1 1.897.202.599.1 1.198.302 1.797.505v-5.957h5.091l.1 22.313zm-5.092-12.823c-.499-.202-1.098-.303-1.597-.404-.499-.1-1.098-.1-1.697-.1s-1.198.1-1.697.201c-.5.202-.899.404-1.198.808-.3.404-.599.909-.699 1.515-.2.605-.2 1.514-.2 2.524 0 .807 0 1.514.1 2.12.1.606.299 1.11.599 1.615.299.404.699.808 1.198 1.01.499.202 1.198.303 1.997.303 1.298 0 2.296-.202 3.294-.707l-.1-8.885z" fill="#fff"/><path d="M50.317 38.607l-12.48 12.721-10.982-15.144 23.462 2.423z" fill="url(#paint0_linear_4_2292)"/><path d="M45.624 43.453l.3 6.159-18.869-13.428 18.57 7.27z" fill="url(#paint1_linear_4_2292)"/><path d="M28.752 51.53L11.68 46.785l7.588-17.063 9.484 21.808z" fill="url(#paint2_linear_4_2292)"/><path d="M22.263 49.713l-5.291 3.13 2.296-23.121 2.995 19.99z" fill="url(#paint3_linear_4_2292)"/><path d="M6.988 38.91L2.695 21.443l18.47-1.717L6.988 38.91z" fill="url(#paint4_linear_4_2292)"/><path d="M5.39 32.246L.1 29.216l21.065-9.49L5.39 32.246z" fill="url(#paint5_linear_4_2292)"/><path d="M7.188 13.567L20.067 1.148l10.582 15.448-23.461-3.029z" fill="url(#paint6_linear_4_2292)"/><path d="M12.08 8.822V2.663l18.57 13.933-18.57-7.774z" fill="url(#paint7_linear_4_2292)"/><path d="M29.152 1.25L46.124 6.5l-8.087 16.86-8.885-22.11z" fill="url(#paint8_linear_4_2292)"/><path d="M35.541 3.168L40.932.24l-2.895 23.12-2.496-20.192z" fill="url(#paint9_linear_4_2292)"/><path d="M50.517 14.476l3.793 17.467-18.47 1.212 14.676-18.679z" fill="url(#paint10_linear_4_2292)"/><path d="M52.014 21.039l5.191 3.23-21.364 8.885L52.014 21.04z" fill="url(#paint11_linear_4_2292)"/><defs><linearGradient id="paint0_linear_4_2292" x1="38.586" y1="36.184" x2="38.586" y2="51.328" gradientUnits="userSpaceOnUse"><stop stop-color="#fff" stop-opacity=".8"/><stop offset="1" stop-color="#fff" stop-opacity=".4"/></linearGradient><linearGradient id="paint1_linear_4_2292" x1="44.515" y1="43.322" x2="4.382" y2="40.781" gradientUnits="userSpaceOnUse"><stop stop-color="#fff"/><stop offset="1" stop-color="#fff"/></linearGradient><linearGradient id="paint2_linear_4_2292" x1="20.216" y1="29.722" x2="20.216" y2="51.53" gradientUnits="userSpaceOnUse"><stop stop-color="#fff" stop-opacity=".8"/><stop offset="1" stop-color="#fff" stop-opacity=".4"/></linearGradient><linearGradient id="paint3_linear_4_2292" x1="21.868" y1="42.013" x2="10.57" y2="41.896" gradientUnits="userSpaceOnUse"><stop stop-color="#fff"/><stop offset="1" stop-color="#fff"/></linearGradient><linearGradient id="paint4_linear_4_2292" x1="11.93" y1="19.726" x2="11.93" y2="38.91" gradientUnits="userSpaceOnUse"><stop stop-color="#fff" stop-opacity=".8"/><stop offset="1" stop-color="#fff" stop-opacity=".4"/></linearGradient><linearGradient id="paint5_linear_4_2292" x1="19.592" y1="26.381" x2="-25.135" y2="22.99" gradientUnits="userSpaceOnUse"><stop stop-color="#fff"/><stop offset="1" stop-color="#fff"/></linearGradient><linearGradient id="paint6_linear_4_2292" x1="18.919" y1="1.148" x2="18.919" y2="16.596" gradientUnits="userSpaceOnUse"><stop stop-color="#fff" stop-opacity=".8"/><stop offset="1" stop-color="#fff" stop-opacity=".4"/></linearGradient><linearGradient id="paint7_linear_4_2292" x1="29.262" y1="10.07" x2="-10.249" y2="7.697" gradientUnits="userSpaceOnUse"><stop stop-color="#fff"/><stop offset="1" stop-color="#fff"/></linearGradient><linearGradient id="paint8_linear_4_2292" x1="37.638" y1="1.25" x2="37.638" y2="23.361" gradientUnits="userSpaceOnUse"><stop stop-color="#fff" stop-opacity=".8"/><stop offset="1" stop-color="#fff" stop-opacity=".4"/></linearGradient><linearGradient id="paint9_linear_4_2292" x1="40.53" y1="12.531" x2="29.019" y2="12.41" gradientUnits="userSpaceOnUse"><stop stop-color="#fff"/><stop offset="1" stop-color="#fff"/></linearGradient><linearGradient id="paint10_linear_4_2292" x1="45.075" y1="14.476" x2="45.075" y2="33.155" gradientUnits="userSpaceOnUse"><stop stop-color="#fff" stop-opacity=".8"/><stop offset="1" stop-color="#fff" stop-opacity=".4"/></linearGradient><linearGradient id="paint11_linear_4_2292" x1="55.61" y1="27.479" x2="10.273" y2="23.877" gradientUnits="userSpaceOnUse"><stop stop-color="#fff"/><stop offset="1" stop-color="#fff"/></linearGradient></defs></svg>