<svg width="32" height="32" fill="none" xmlns="http://www.w3.org/2000/svg"><path fill-rule="evenodd" clip-rule="evenodd" d="M4 0a4 4 0 00-4 4v24a4 4 0 004 4h24a4 4 0 004-4V4a4 4 0 00-4-4H4zm13.93 11.163a2.14 2.14 0 00-2.137-2.138 2.14 2.14 0 00-2.138 2.138 2.14 2.14 0 002.138 2.134 2.14 2.14 0 002.137-2.134zm3.026 0a5.167 5.167 0 01-5.163 5.16 5.164 5.164 0 01-5.16-5.16A5.165 5.165 0 0115.793 6a5.168 5.168 0 015.163 5.163zm-.078 8.128a9.734 9.734 0 01-2.997 1.243l2.886 2.884c.59.589.59 1.548 0 2.137a1.507 1.507 0 01-2.137 0l-2.837-2.833-2.834 2.833a1.515 1.515 0 01-2.141 0 1.513 1.513 0 010-2.137l2.886-2.884a9.734 9.734 0 01-2.997-1.243 1.512 1.512 0 011.61-2.56 6.559 6.559 0 006.948 0 1.512 1.512 0 111.612 2.56z" fill="#CDD1D6"/></svg>