<svg width="32" height="32" fill="none" xmlns="http://www.w3.org/2000/svg"><path fill-rule="evenodd" clip-rule="evenodd" d="M4 0a4 4 0 00-4 4v24a4 4 0 004 4h24a4 4 0 004-4V4a4 4 0 00-4-4H4zm17.47 10.744h3.245c1.48 0 .4 1.665-.196 2.452a939.73 939.73 0 01-2.093 2.737.99.99 0 00.078 1.294s1.945 2.033 2.484 2.559c.765.748.765 1.714-.64 1.714h-2.912a1.08 1.08 0 01-.735-.289l-2.218-2.066a.721.721 0 00-1.212.52v1.11a.723.723 0 01-.214.512.735.735 0 01-.518.213h-1.853c-4.402 0-8.26-7.651-9.155-10.086a.492.492 0 01.24-.614.506.506 0 01.233-.056h2.95a.688.688 0 01.621.394 21.01 21.01 0 002.464 4.443.72.72 0 00.801.188.717.717 0 00.455-.681c-.02-.99-.041-2.171-.041-2.582 0-1.655-1.24-1.456-1.24-1.456a1.952 1.952 0 011.728-.795h2.44a1.092 1.092 0 011.09 1.08v3.427c0 .993.723 1.666 1.842-.476.416-.796 1.71-3.159 1.71-3.159a.728.728 0 01.646-.383z" fill="#CDD1D6"/></svg>