<svg width="32" height="32" fill="none" xmlns="http://www.w3.org/2000/svg"><path fill-rule="evenodd" clip-rule="evenodd" d="M0 4a4 4 0 014-4h24a4 4 0 014 4v24a4 4 0 01-4 4H4a4 4 0 01-4-4V4zm23.947 6.353a2.352 2.352 0 00-1.327-.606 39.412 39.412 0 00-3.307-.217c-1.101-.03-2.207-.03-3.31-.03-1.103 0-2.209 0-3.31.03a39.454 39.454 0 00-3.307.217 2.349 2.349 0 00-1.327.607c-.36.33-.626.774-.742 1.284a12.656 12.656 0 00-.276 2.114c-.04.721-.041 1.433-.041 2.124 0 .69 0 1.4.04 2.122.038.717.117 1.43.273 2.114.117.51.382.954.743 1.285.363.332.823.55 1.326.606 1.095.123 2.2.185 3.308.217 1.1.03 2.206.03 3.31.03 1.103 0 2.209 0 3.31-.03a39.5 39.5 0 003.307-.217 2.348 2.348 0 001.326-.606c.36-.33.626-.774.744-1.285.156-.684.234-1.397.273-2.114.039-.708.04-1.425.04-2.122v-.035c0-1.384 0-2.85-.31-4.203a2.489 2.489 0 00-.743-1.285zm-7.608 3.628l3.084 1.61.327.17-.328.17-2.82 1.462-2.82 1.462L13.5 19v-6.5l.282.147 2.556 1.334z" fill="#CDD1D6"/></svg>